<svg xmlns="http://www.w3.org/2000/svg" xmlns:xlink="http://www.w3.org/1999/xlink" width="1800" zoomAndPan="magnify" viewBox="0 0 1350 374.999991" height="500" preserveAspectRatio="xMidYMid meet" version="1.0"><defs><g/><clipPath id="532ad3c7c0"><path d="M 138.671875 165.058594 L 149.054688 165.058594 L 149.054688 222.75 L 138.671875 222.75 Z M 138.671875 165.058594 " clip-rule="nonzero"/></clipPath><clipPath id="7d19648cd1"><path d="M 138.671875 217.558594 L 138.671875 170.253906 C 138.671875 169.5625 138.804688 168.902344 139.066406 168.265625 C 139.332031 167.628906 139.707031 167.066406 140.191406 166.582031 C 140.679688 166.09375 141.242188 165.71875 141.878906 165.457031 C 142.511719 165.191406 143.175781 165.058594 143.863281 165.058594 C 144.550781 165.058594 145.214844 165.191406 145.851562 165.457031 C 146.488281 165.71875 147.046875 166.09375 147.535156 166.582031 C 148.023438 167.066406 148.398438 167.628906 148.660156 168.265625 C 148.925781 168.902344 149.054688 169.5625 149.054688 170.253906 L 149.054688 217.558594 C 149.054688 218.246094 148.925781 218.910156 148.660156 219.546875 C 148.398438 220.179688 148.023438 220.742188 147.535156 221.230469 C 147.046875 221.714844 146.488281 222.089844 145.851562 222.355469 C 145.214844 222.617188 144.550781 222.75 143.863281 222.75 C 143.175781 222.75 142.511719 222.617188 141.878906 222.355469 C 141.242188 222.089844 140.679688 221.714844 140.191406 221.230469 C 139.707031 220.742188 139.332031 220.179688 139.066406 219.546875 C 138.804688 218.910156 138.671875 218.246094 138.671875 217.558594 Z M 138.671875 217.558594 " clip-rule="nonzero"/></clipPath><clipPath id="0e4ddef06f"><path d="M 138.671875 189.867188 L 149.054688 189.867188 L 149.054688 222.75 L 138.671875 222.75 Z M 138.671875 189.867188 " clip-rule="nonzero"/></clipPath><clipPath id="76e47bef2d"><path d="M 138.671875 217.558594 L 138.671875 195.058594 C 138.671875 194.371094 138.804688 193.707031 139.066406 193.070312 C 139.332031 192.4375 139.707031 191.875 140.191406 191.386719 C 140.679688 190.902344 141.242188 190.527344 141.878906 190.261719 C 142.511719 190 143.175781 189.867188 143.863281 189.867188 C 144.550781 189.867188 145.214844 190 145.851562 190.261719 C 146.488281 190.527344 147.046875 190.902344 147.535156 191.386719 C 148.023438 191.875 148.398438 192.4375 148.660156 193.070312 C 148.925781 193.707031 149.054688 194.371094 149.054688 195.058594 L 149.054688 217.558594 C 149.054688 218.246094 148.925781 218.910156 148.660156 219.546875 C 148.398438 220.179688 148.023438 220.742188 147.535156 221.230469 C 147.046875 221.714844 146.488281 222.089844 145.851562 222.355469 C 145.214844 222.617188 144.550781 222.75 143.863281 222.75 C 143.175781 222.75 142.511719 222.617188 141.878906 222.355469 C 141.242188 222.089844 140.679688 221.714844 140.191406 221.230469 C 139.707031 220.742188 139.332031 220.179688 139.066406 219.546875 C 138.804688 218.910156 138.671875 218.246094 138.671875 217.558594 Z M 138.671875 217.558594 " clip-rule="nonzero"/></clipPath><clipPath id="6d1dec40e6"><path d="M 137.898438 149.28125 L 149.0625 149.28125 L 149.0625 160.445312 L 137.898438 160.445312 Z M 137.898438 149.28125 " clip-rule="nonzero"/></clipPath><clipPath id="ec9fa24f08"><path d="M 143.480469 149.28125 C 144.21875 149.28125 144.929688 149.425781 145.613281 149.707031 C 146.296875 149.992188 146.902344 150.394531 147.425781 150.917969 C 147.949219 151.441406 148.351562 152.042969 148.636719 152.730469 C 148.917969 153.414062 149.0625 154.125 149.0625 154.863281 C 149.0625 155.605469 148.917969 156.316406 148.636719 157 C 148.351562 157.683594 147.949219 158.289062 147.425781 158.8125 C 146.902344 159.335938 146.296875 159.738281 145.613281 160.023438 C 144.929688 160.304688 144.21875 160.445312 143.480469 160.445312 C 142.738281 160.445312 142.027344 160.304688 141.34375 160.023438 C 140.660156 159.738281 140.054688 159.335938 139.53125 158.8125 C 139.007812 158.289062 138.605469 157.683594 138.320312 157 C 138.039062 156.316406 137.898438 155.605469 137.898438 154.863281 C 137.898438 154.125 138.039062 153.414062 138.320312 152.730469 C 138.605469 152.042969 139.007812 151.441406 139.53125 150.917969 C 140.054688 150.394531 140.660156 149.992188 141.34375 149.707031 C 142.027344 149.425781 142.738281 149.28125 143.480469 149.28125 L 143.480469 151.515625 C 142.554688 151.515625 141.765625 151.84375 141.109375 152.496094 C 140.457031 153.152344 140.128906 153.941406 140.128906 154.863281 C 140.128906 155.789062 140.457031 156.578125 141.109375 157.234375 C 141.765625 157.886719 142.554688 158.214844 143.480469 158.214844 C 144.402344 158.214844 145.191406 157.886719 145.847656 157.234375 C 146.5 156.578125 146.828125 155.789062 146.828125 154.863281 C 146.828125 153.941406 146.5 153.152344 145.847656 152.496094 C 145.191406 151.84375 144.402344 151.515625 143.480469 151.515625 Z M 143.480469 149.28125 " clip-rule="nonzero"/></clipPath><clipPath id="04ec30655a"><path d="M 139 149.171875 L 150 149.171875 L 150 161 L 139 161 Z M 139 149.171875 " clip-rule="nonzero"/></clipPath><clipPath id="aa701b01e4"><path d="M 144.875 149.460938 C 145.722656 149.679688 146.480469 150.078125 147.140625 150.652344 C 147.804688 151.226562 148.300781 151.921875 148.636719 152.730469 C 148.972656 153.542969 149.109375 154.386719 149.046875 155.261719 C 148.984375 156.136719 148.730469 156.949219 148.285156 157.707031 C 147.835938 158.460938 147.246094 159.078125 146.507812 159.554688 C 145.769531 160.027344 144.96875 160.316406 144.09375 160.414062 C 143.222656 160.507812 142.375 160.40625 141.550781 160.105469 C 140.730469 159.800781 140.015625 159.328125 139.414062 158.691406 C 139.203125 158.46875 139.101562 158.199219 139.113281 157.890625 C 139.121094 157.585938 139.238281 157.324219 139.460938 157.113281 C 139.6875 156.902344 139.953125 156.800781 140.261719 156.808594 C 140.570312 156.820312 140.828125 156.9375 141.039062 157.160156 C 141.402344 157.542969 141.828125 157.828125 142.324219 158.007812 C 142.816406 158.191406 143.324219 158.25 143.847656 158.195312 C 144.371094 158.136719 144.855469 157.964844 145.296875 157.675781 C 145.738281 157.390625 146.09375 157.023438 146.363281 156.570312 C 146.628906 156.117188 146.78125 155.628906 146.820312 155.101562 C 146.855469 154.578125 146.773438 154.070312 146.574219 153.585938 C 146.371094 153.097656 146.074219 152.683594 145.675781 152.335938 C 145.277344 151.992188 144.824219 151.753906 144.316406 151.621094 C 144.019531 151.542969 143.789062 151.375 143.632812 151.109375 C 143.476562 150.84375 143.4375 150.558594 143.515625 150.261719 C 143.589844 149.964844 143.761719 149.734375 144.027344 149.578125 C 144.292969 149.421875 144.574219 149.382812 144.875 149.460938 Z M 144.875 149.460938 " clip-rule="nonzero"/></clipPath><clipPath id="09ef78cdfc"><path d="M 917.949219 143.992188 L 932.800781 143.992188 L 932.800781 226.503906 L 917.949219 226.503906 Z M 917.949219 143.992188 " clip-rule="nonzero"/></clipPath><clipPath id="dc8d3e9d67"><path d="M 917.949219 219.078125 L 917.949219 151.417969 C 917.949219 150.433594 918.136719 149.484375 918.511719 148.574219 C 918.890625 147.664062 919.425781 146.863281 920.125 146.167969 C 920.820312 145.46875 921.621094 144.933594 922.53125 144.554688 C 923.441406 144.179688 924.390625 143.992188 925.375 143.992188 C 926.359375 143.992188 927.304688 144.179688 928.214844 144.554688 C 929.125 144.933594 929.929688 145.46875 930.625 146.167969 C 931.320312 146.863281 931.859375 147.664062 932.234375 148.574219 C 932.613281 149.484375 932.800781 150.433594 932.800781 151.417969 L 932.800781 219.078125 C 932.800781 220.0625 932.613281 221.007812 932.234375 221.917969 C 931.859375 222.828125 931.320312 223.632812 930.625 224.328125 C 929.929688 225.023438 929.125 225.5625 928.214844 225.9375 C 927.304688 226.316406 926.359375 226.503906 925.375 226.503906 C 924.390625 226.503906 923.441406 226.316406 922.53125 225.9375 C 921.621094 225.5625 920.820312 225.023438 920.125 224.328125 C 919.425781 223.632812 918.890625 222.828125 918.511719 221.917969 C 918.136719 221.007812 917.949219 220.0625 917.949219 219.078125 Z M 917.949219 219.078125 " clip-rule="nonzero"/></clipPath><clipPath id="0c7a11b7e3"><path d="M 917.949219 179.472656 L 932.800781 179.472656 L 932.800781 226.503906 L 917.949219 226.503906 Z M 917.949219 179.472656 " clip-rule="nonzero"/></clipPath><clipPath id="bc6daa7830"><path d="M 917.949219 219.078125 L 917.949219 186.898438 C 917.949219 185.914062 918.136719 184.964844 918.511719 184.054688 C 918.890625 183.144531 919.425781 182.34375 920.125 181.648438 C 920.820312 180.949219 921.621094 180.414062 922.53125 180.035156 C 923.441406 179.660156 924.390625 179.472656 925.375 179.472656 C 926.359375 179.472656 927.304688 179.660156 928.214844 180.035156 C 929.125 180.414062 929.929688 180.949219 930.625 181.648438 C 931.320312 182.34375 931.859375 183.144531 932.234375 184.054688 C 932.613281 184.964844 932.800781 185.914062 932.800781 186.898438 L 932.800781 219.078125 C 932.800781 220.0625 932.613281 221.007812 932.234375 221.917969 C 931.859375 222.828125 931.320312 223.632812 930.625 224.328125 C 929.929688 225.023438 929.125 225.5625 928.214844 225.9375 C 927.304688 226.316406 926.359375 226.503906 925.375 226.503906 C 924.390625 226.503906 923.441406 226.316406 922.53125 225.9375 C 921.621094 225.5625 920.820312 225.023438 920.125 224.328125 C 919.425781 223.632812 918.890625 222.828125 918.511719 221.917969 C 918.136719 221.007812 917.949219 220.0625 917.949219 219.078125 Z M 917.949219 219.078125 " clip-rule="nonzero"/></clipPath></defs><rect x="-135" width="1620" fill="#ffffff" y="-37.499999" height="449.999989" fill-opacity="1"/><rect x="-135" width="1620" fill="#ffffff" y="-37.499999" height="449.999989" fill-opacity="1"/><rect x="-135" width="1620" fill="#ffffff" y="-37.499999" height="449.999989" fill-opacity="1"/><g fill="#000000" fill-opacity="1"><g transform="translate(86.232083, 247.324174)"><g><path d="M 9.191406 -117.210938 L 9.191406 0 L 93.558594 0 L 93.558594 -21.695312 L 33.445312 -21.695312 L 33.445312 -117.210938 Z M 9.191406 -117.210938 "/></g></g></g><g fill="#1190cf" fill-opacity="1"><g transform="translate(201.148716, 123.101147)"><g><path d="M -9.191406 117.210938 L -9.191406 0 L -93.558594 0 L -93.558594 21.695312 L -33.445312 21.695312 L -33.445312 117.210938 Z M -9.191406 117.210938 "/></g></g></g><g clip-path="url(#532ad3c7c0)"><g clip-path="url(#7d19648cd1)"><path fill="#ff671f" d="M 138.671875 222.75 L 138.671875 165.058594 L 149.054688 165.058594 L 149.054688 222.75 Z M 138.671875 222.75 " fill-opacity="1" fill-rule="nonzero"/></g></g><g clip-path="url(#0e4ddef06f)"><g clip-path="url(#76e47bef2d)"><path fill="#138808" d="M 138.671875 222.75 L 138.671875 165.058594 L 149.054688 165.058594 L 149.054688 222.75 Z M 138.671875 222.75 " fill-opacity="1" fill-rule="nonzero"/></g></g><g clip-path="url(#6d1dec40e6)"><g clip-path="url(#ec9fa24f08)"><path fill="#000080" d="M 137.898438 149.28125 L 149.0625 149.28125 L 149.0625 160.445312 L 137.898438 160.445312 Z M 137.898438 149.28125 " fill-opacity="1" fill-rule="nonzero"/></g></g><g clip-path="url(#04ec30655a)"><g clip-path="url(#aa701b01e4)"><path fill="#000080" d="M 137.898438 149.28125 L 149.0625 149.28125 L 149.0625 160.445312 L 137.898438 160.445312 Z M 137.898438 149.28125 " fill-opacity="1" fill-rule="nonzero"/></g></g><g fill="#000000" fill-opacity="1"><g transform="translate(941.32687, 223.043957)"><g><path d="M 21.234375 0 L 12.0625 0 L 12.0625 -79.8125 L 23.578125 -79.8125 L 62.5 -18.828125 L 63.875 -19.046875 L 63.875 -79.8125 L 72.984375 -79.8125 L 72.984375 0 L 63.15625 0 L 22.59375 -65.234375 L 21.234375 -65.015625 Z M 21.234375 0 "/></g></g><g transform="translate(1026.426122, 223.043957)"><g><path d="M 37.890625 -79.8125 C 45.960938 -79.8125 52.898438 -78.363281 58.703125 -75.46875 C 64.515625 -72.570312 68.992188 -68.15625 72.140625 -62.21875 C 75.285156 -56.289062 76.859375 -48.851562 76.859375 -39.90625 C 76.859375 -30.945312 75.285156 -23.5 72.140625 -17.5625 C 68.992188 -11.632812 64.515625 -7.222656 58.703125 -4.328125 C 52.898438 -1.441406 45.960938 0 37.890625 0 L 12.0625 0 L 12.0625 -79.8125 Z M 36.953125 -7.96875 C 43.617188 -7.96875 49.132812 -9.003906 53.5 -11.078125 C 57.863281 -13.148438 61.171875 -16.535156 63.421875 -21.234375 C 65.679688 -25.929688 66.8125 -32.15625 66.8125 -39.90625 C 66.8125 -47.695312 65.679688 -53.925781 63.421875 -58.59375 C 61.171875 -63.269531 57.863281 -66.644531 53.5 -68.71875 C 49.132812 -70.800781 43.617188 -71.84375 36.953125 -71.84375 L 21.453125 -71.84375 L 21.453125 -7.96875 Z M 36.953125 -7.96875 "/></g></g><g transform="translate(1111.252444, 223.043957)"><g><path d="M 21.453125 0 L 12.0625 0 L 12.0625 -79.8125 L 21.453125 -79.8125 Z M 21.453125 0 "/></g></g><g transform="translate(1144.822706, 223.043957)"><g><path d="M 71.84375 0 L 61.796875 0 L 54.421875 -21.890625 L 20.421875 -21.890625 L 12.984375 0 L 3.171875 0 L 31 -79.8125 L 44 -79.8125 Z M 36.734375 -70.140625 L 23.03125 -29.75 L 51.75 -29.75 L 38.109375 -70.140625 Z M 36.734375 -70.140625 "/></g></g></g><g fill="#278fd0" fill-opacity="1"><g transform="translate(576.208544, 223.043957)"><g><path d="M 62.28125 -79.8125 L 62.28125 -71.84375 L 37.28125 -71.84375 L 37.28125 0 L 27.953125 0 L 27.953125 -71.84375 L 2.953125 -71.84375 L 2.953125 -79.8125 Z M 62.28125 -79.8125 "/></g></g><g transform="translate(641.383981, 223.043957)"><g><path d="M 21.453125 -37.609375 L 21.453125 -7.75 L 62.125 -7.75 L 62.125 0 L 12.0625 0 L 12.0625 -79.8125 L 61.25 -79.8125 L 61.25 -72.0625 L 21.453125 -72.0625 L 21.453125 -45.359375 L 56.546875 -45.359375 L 56.546875 -37.609375 Z M 21.453125 -37.609375 "/></g></g><g transform="translate(708.797434, 223.043957)"><g><path d="M 44.109375 1.140625 C 37.117188 1.140625 30.894531 -0.457031 25.4375 -3.65625 C 19.976562 -6.863281 15.703125 -11.550781 12.609375 -17.71875 C 9.515625 -23.882812 7.96875 -31.28125 7.96875 -39.90625 C 7.96875 -48.53125 9.515625 -55.925781 12.609375 -62.09375 C 15.703125 -68.257812 19.976562 -72.941406 25.4375 -76.140625 C 30.894531 -79.347656 37.117188 -80.953125 44.109375 -80.953125 C 51.566406 -80.953125 57.769531 -79.539062 62.71875 -76.71875 C 67.664062 -73.90625 71.234375 -69.660156 73.421875 -63.984375 L 67.421875 -60 L 66.046875 -60 C 63.867188 -64.539062 61.03125 -67.765625 57.53125 -69.671875 C 54.039062 -71.585938 49.566406 -72.546875 44.109375 -72.546875 C 39.085938 -72.546875 34.628906 -71.425781 30.734375 -69.1875 C 26.835938 -66.945312 23.742188 -63.398438 21.453125 -58.546875 C 19.160156 -53.691406 18.015625 -47.476562 18.015625 -39.90625 C 18.015625 -32.332031 19.160156 -26.125 21.453125 -21.28125 C 23.742188 -16.445312 26.835938 -12.910156 30.734375 -10.671875 C 34.628906 -8.429688 39.085938 -7.3125 44.109375 -7.3125 C 49.890625 -7.3125 54.617188 -8.613281 58.296875 -11.21875 C 61.972656 -13.820312 64.703125 -18.035156 66.484375 -23.859375 L 67.859375 -23.859375 L 74.125 -20.75 C 72.238281 -13.6875 68.738281 -8.269531 63.625 -4.5 C 58.507812 -0.738281 52.003906 1.140625 44.109375 1.140625 Z M 44.109375 1.140625 "/></g></g><g transform="translate(787.073461, 223.043957)"><g><path d="M 62.9375 -47.4375 L 62.9375 -79.8125 L 72.28125 -79.8125 L 72.28125 0 L 62.9375 0 L 62.9375 -39.46875 L 21.453125 -39.46875 L 21.453125 0 L 12.0625 0 L 12.0625 -79.8125 L 21.453125 -79.8125 L 21.453125 -47.4375 Z M 62.9375 -47.4375 "/></g></g></g><g clip-path="url(#09ef78cdfc)"><g clip-path="url(#dc8d3e9d67)"><path fill="#ff671f" d="M 917.949219 226.503906 L 917.949219 143.992188 L 932.800781 143.992188 L 932.800781 226.503906 Z M 917.949219 226.503906 " fill-opacity="1" fill-rule="nonzero"/></g></g><g clip-path="url(#0c7a11b7e3)"><g clip-path="url(#bc6daa7830)"><path fill="#138808" d="M 917.949219 226.503906 L 917.949219 143.992188 L 932.800781 143.992188 L 932.800781 226.503906 Z M 917.949219 226.503906 " fill-opacity="1" fill-rule="nonzero"/></g></g><g fill="#000000" fill-opacity="1"><g transform="translate(230.316096, 223.043957)"><g><path d="M 21.453125 -79.8125 L 21.453125 -7.75 L 59.890625 -7.75 L 59.890625 0 L 12.0625 0 L 12.0625 -79.8125 Z M 21.453125 -79.8125 "/></g></g><g transform="translate(293.58103, 223.043957)"><g><path d="M 21.453125 -37.609375 L 21.453125 -7.75 L 62.125 -7.75 L 62.125 0 L 12.0625 0 L 12.0625 -79.8125 L 61.25 -79.8125 L 61.25 -72.0625 L 21.453125 -72.0625 L 21.453125 -45.359375 L 56.546875 -45.359375 L 56.546875 -37.609375 Z M 21.453125 -37.609375 "/></g></g><g transform="translate(360.994484, 223.043957)"><g><path d="M 41.984375 1.140625 C 35.285156 1.140625 29.378906 -0.382812 24.265625 -3.4375 C 19.148438 -6.5 15.15625 -11.101562 12.28125 -17.25 C 9.40625 -23.394531 7.96875 -30.945312 7.96875 -39.90625 C 7.96875 -48.851562 9.503906 -56.398438 12.578125 -62.546875 C 15.660156 -68.703125 19.929688 -73.304688 25.390625 -76.359375 C 30.847656 -79.421875 37.140625 -80.953125 44.265625 -80.953125 C 51.910156 -80.953125 58.1875 -79.578125 63.09375 -76.828125 C 68.007812 -74.085938 71.488281 -69.984375 73.53125 -64.515625 L 67.421875 -60.921875 L 66.046875 -60.921875 C 63.972656 -65.066406 61.171875 -68.039062 57.640625 -69.84375 C 54.109375 -71.644531 49.648438 -72.546875 44.265625 -72.546875 C 26.765625 -72.546875 18.015625 -61.664062 18.015625 -39.90625 C 18.015625 -28.582031 20.210938 -20.316406 24.609375 -15.109375 C 29.015625 -9.910156 35.1875 -7.3125 43.125 -7.3125 C 50.40625 -7.3125 55.851562 -8.96875 59.46875 -12.28125 C 63.09375 -15.59375 64.90625 -20.816406 64.90625 -27.953125 L 64.90625 -34.984375 L 42.203125 -34.984375 L 42.203125 -42.53125 L 74.015625 -42.53125 L 74.015625 0 L 65.34375 0 L 65.34375 -10.703125 L 64.203125 -10.96875 C 62.085938 -6.851562 59.144531 -3.804688 55.375 -1.828125 C 51.613281 0.148438 47.148438 1.140625 41.984375 1.140625 Z M 41.984375 1.140625 "/></g></g><g transform="translate(443.964889, 223.043957)"><g><path d="M 71.84375 0 L 61.796875 0 L 54.421875 -21.890625 L 20.421875 -21.890625 L 12.984375 0 L 3.171875 0 L 31 -79.8125 L 44 -79.8125 Z M 36.734375 -70.140625 L 23.03125 -29.75 L 51.75 -29.75 L 38.109375 -70.140625 Z M 36.734375 -70.140625 "/></g></g><g transform="translate(518.965769, 223.043957)"><g><path d="M 21.453125 -79.8125 L 21.453125 -7.75 L 59.890625 -7.75 L 59.890625 0 L 12.0625 0 L 12.0625 -79.8125 Z M 21.453125 -79.8125 "/></g></g></g></svg>